<svg fill="none" height="210" viewBox="0 0 474 210" width="474" xmlns="http://www.w3.org/2000/svg" xmlns:xlink="http://www.w3.org/1999/xlink">
    <filter id="a" color-interpolation-filters="sRGB" filterUnits="userSpaceOnUse" height="116.412" width="116.412" x="175.337" y="-8.94141">
        <feFlood flood-opacity="0" result="BackgroundImageFix"/>
        <feBlend in="SourceGraphic" in2="BackgroundImageFix" mode="normal" result="shape"/>
        <feGaussianBlur result="effect1_foregroundBlur_116:1137" stdDeviation="15"/>
    </filter>
    <linearGradient id="b">
        <stop offset="0" stop-color="#e0ad50" stop-opacity="0"/>
        <stop offset="1" stop-color="#e0ad50"/>
    </linearGradient>
    <linearGradient id="c" gradientUnits="userSpaceOnUse" x1="25" x2="126.155" xlink:href="#b" y1="183" y2="27.0837"/>
    <linearGradient id="d" gradientUnits="userSpaceOnUse" x1="307" x2="408.155" xlink:href="#b" y1="153" y2="-2.91631"/>
    <mask id="f" height="137" maskUnits="userSpaceOnUse" width="137" x="159" y="13">
        <circle cx="227.5" cy="81.5" fill="#e0ad50" opacity=".8" r="68.5"/>
    </mask>
    <path d="m25 163.051h76.211v27.949h32.097v-27.949h19.692v-26.94h-19.692v-104.111h-42.0209l-66.2871 104.577zm76.831-26.94h-43.0285v-1.242l41.7885-66.2245h1.24z"
          opacity=".5" stroke="url(#c)" stroke-width="3"/>
    <path d="m307 133.051h76.211v27.949h32.097v-27.949h19.692v-26.94h-19.692v-104.111h-42.021l-66.287 104.577zm76.831-26.94h-43.028v-1.242l41.788-66.2245h1.24z"
          opacity=".5" stroke="url(#d)" stroke-width="3"/>
    <!-- Soccer Ball SVG Start -->
    <svg opacity="0.7" x="159" y="13" width="137px" height="137px" viewBox="-105 -105 210 210" xmlns="http://www.w3.org/2000/svg" xmlns:xlink="http://www.w3.org/1999/xlink">
        <defs>
            <radialGradient id="b2" cx=".4" cy=".3" r=".8">
                <stop offset="0" stop-color="#fff"/>
                <stop offset=".4" stop-color="#fff"/>
                <stop offset=".8" stop-color="#e0ad50"/>
            </radialGradient>
            <radialGradient id="d2" cx=".5" cy=".5" r=".5">
                <stop offset="0" stop-color="#fff" stop-opacity="0"/>
                <stop offset=".8" stop-color="#fff" stop-opacity="0"/>
                <stop offset=".99" stop-opacity=".3"/>
                <stop offset="1"/>
            </radialGradient>
            <clipPath id="a2">
                <circle r="100" stroke-width="0"/>
            </clipPath>
            <g id="c2" stroke-linejoin="round" clip-path="url(#a2)">
                <path fill="#000" d="M6-32q20 4 40 13 11-16 18-28-14-21-27-29-20 1-36 8 3 17 5 36M-26-2q-19-6-36-9-12 16-14 33 7 18 26 32 18-7 33-15-6-24-9-41m-69 24q-7-10-7-30v88h17q-10-35-10-58m150 2Q41 41 24 52q4 13 7 27 24-1 37-12 10-17 12-32-15-7-25-11M0 120l-3-25q-22-2-39-13-8 2-18-1M-90-48q10-4 22-1 16-22 33-28 0-23-5-23h-60m200 45L87-37Q98-10 97 5l3 1"/>
                <path fill="none" d="M6-32Q-18-12-26-2m72-17q8 24 9 43m9-71q13 3 23 10M37-76q2-14-1-24M1-68q-14-9-36-9m-27 66q-5-14-6-38m-8 71q-9 2-19 0m45 32q1 16 8 28m25-43q17 9 41 13m7 27Q20 92-3 95m71-28 12 13m0-45Q90 25 97 5"/>
            </g>
        </defs>
        <circle r="100" fill="#fff"/>
        <circle r="100" fill="url(#b2)"/>
    
        <use xlink:href="#c2" stroke="#000"/>
        <circle r="100" fill="url(#d2)"/>
    </svg>
    <!-- Soccer Ball SVG End -->
    <path d="m0 182h83.5v27h67v-31h19v-29.5s24.5 16.5 60 16.5 64.5-30.5 64.5-30.5v17.5h12.5 54.5v26h74v-26h39"
          stroke="#fff" stroke-opacity=".08" stroke-width="2"/>
</svg>
